<?xml version="1.0" encoding="UTF-8"?>
<svg xmlns="http://www.w3.org/2000/svg" viewBox="0 0 800 800">
  <defs><style>.cls-1 { fill: none; stroke: #000; stroke-linecap: round; stroke-linejoin: round; stroke-width: 66.67px; }</style></defs>
  <path class="cls-1" d="m300,333.33c0-19.78,5.87-39.11,16.85-55.56,10.99-16.45,26.61-29.26,44.88-36.83,18.27-7.57,38.38-9.55,57.78-5.69,19.4,3.86,37.22,13.38,51.2,27.37,13.99,13.99,23.51,31.8,27.37,51.2,3.86,19.4,1.88,39.51-5.69,57.78-7.57,18.27-20.38,33.89-36.83,44.88-16.44,10.99-35.78,16.85-55.56,16.85v33.33m300-66.67c0,165.69-134.31,300-300,300S100,565.69,100,400,234.31,100,400,100s300,134.31,300,300Z"/>
  <circle cx="400" cy="566.67" r="33.33"/>
</svg>