<?xml version="1.0" encoding="UTF-8"?>
<svg xmlns="http://www.w3.org/2000/svg" viewBox="0 0 800 800">
  <defs><style>.cls-1 { fill: #000000; fill-rule: evenodd; } .cls-2 { fill: none; }</style></defs>
  <path class="cls-2" d="m800,0v800H0V0h800Zm-380.22,775.26l-.38.06-2.37,1.18-.63.12h0l-.51-.12-2.37-1.18c-.33-.1-.62-.02-.78.18l-.14.36-.57,14.24.17.68.37.41,3.45,2.47.5.13h0l.39-.13,3.45-2.47.42-.53h0l.11-.55-.57-14.24c-.07-.34-.28-.55-.54-.6h0Zm8.83-3.75l-.46.07-6.16,3.08-.33.34h0l-.09.37.6,14.32.16.43h0l.28.24,6.7,3.09c.4.12.76,0,.95-.27l.13-.47-1.14-20.49c-.08-.4-.34-.65-.64-.71h0Zm-23.84.07c-.33-.16-.7-.07-.91.18l-.19.46-1.14,20.49c-.02.38.23.69.56.78l.52-.04,6.7-3.09.31-.27h0l.13-.39.6-14.32-.11-.42h0l-.32-.3-6.16-3.08Z"/>
  <path class="cls-1" d="m194.23,433.45c2.22-5,9.31-5,11.53,0l5.67,12.38h0c24.25,50.16,62.44,92.27,109.99,121.27l8.83,5.17h0c4.1,2.31,4.1,8.22,0,10.52l-8.83,5.18h0c-47.55,29-85.75,71.11-109.99,121.27l-5.67,12.39h0c-2.22,4.99-9.31,4.99-11.53,0l-5.67-12.39h0c-24.25-50.16-62.44-92.26-109.99-121.27l-8.83-5.18h0c-4.1-2.31-4.1-8.21,0-10.52l8.83-5.17h0c47.55-29,85.75-71.11,109.99-121.27,1.97-4.08,3.82-8.23,5.67-12.38Zm5.66,116.22l-5.84,6.87c-4.15,4.67-8.43,9.24-12.82,13.69l-6.68,6.59-.9.79,7.58,7.43,6.5,6.76h0l6.32,6.93,5.84,6.85,5.85-6.85c4.15-4.67,8.43-9.24,12.82-13.69l7.56-7.43-.89-.79c-4.51-4.33-8.9-8.78-13.18-13.35l-6.32-6.93-5.85-6.87ZM482.42,91c3.89-8.74,16.29-8.74,20.18,0l5.02,11.2h0l4.9,10.47h0l6.53,13.02h0l7.53,13.96,3.74,6.56h0c33.23,57.35,77.36,107.58,129.83,147.89l14.24,10.55c9.94,7.1,20.16,13.85,30.63,20.24,5.09,3.1,10.24,6.12,15.45,9.06,7.18,4.04,7.18,14.38,0,18.41-5.21,2.93-10.36,5.95-15.45,9.06-6.98,4.26-13.85,8.68-20.6,13.26l-12.01,8.41c-57.87,41.75-106.29,95.25-142.08,157.01l-4.38,7.72c-4.71,8.46-9.18,17.07-13.41,25.82l-4.9,10.47h0l-5.02,11.2h0c-3.89,8.74-16.29,8.74-20.18,0l-5.02-11.2h0l-4.9-10.47h0l-6.53-13.02h0l-7.53-13.96-3.74-6.56h0c-33.23-57.35-77.36-107.58-129.83-147.89l-14.24-10.55c-9.94-7.1-20.16-13.85-30.63-20.24-5.09-3.11-10.24-6.12-15.45-9.06-7.18-4.04-7.18-14.38,0-18.41,5.21-2.93,10.36-5.95,15.45-9.06,6.98-4.26,13.85-8.68,20.6-13.26l12.02-8.41c57.87-41.75,106.29-95.26,142.08-157.01l4.38-7.72c4.71-8.46,9.18-17.07,13.41-25.82l4.9-10.47,5.02-11.2Zm10.09,120.5c-33.52,50-74.73,94.44-122.1,131.65,47.37,37.22,88.58,81.65,122.1,131.65,33.52-50,74.73-94.44,122.1-131.65-47.37-37.22-88.58-81.66-122.1-131.65Z"/>
</svg>