<?xml version="1.0" encoding="UTF-8"?>
<svg xmlns="http://www.w3.org/2000/svg" viewBox="0 0 800 800">
  <defs><style>.cls-1 { fill-rule: evenodd; }</style></defs>
  <path class="cls-1" d="m656.9,190.24c13.02-13.02,13.02-34.12,0-47.14-13.02-13.02-34.12-13.02-47.14,0l-142.03,142.03c-19.85-11.73-43.01-18.46-67.73-18.46-73.64,0-133.33,59.7-133.33,133.33,0,24.73,6.73,47.88,18.46,67.73l-142.03,142.03c-13.02,13.02-13.02,34.12,0,47.14,13.02,13.02,34.12,13.02,47.14,0l142.03-142.03c19.85,11.73,43.01,18.46,67.73,18.46,73.64,0,133.33-59.7,133.33-133.33,0-24.73-6.73-47.88-18.46-67.73l142.03-142.03Zm-239.64,145.35c-5.51-1.47-11.29-2.26-17.27-2.26-36.82,0-66.67,29.85-66.67,66.67,0,5.97.79,11.76,2.26,17.27l81.68-81.68Zm-34.53,128.82l81.68-81.68c1.47,5.51,2.26,11.29,2.26,17.27,0,36.82-29.85,66.67-66.67,66.67-5.97,0-11.76-.79-17.27-2.26Zm142.77-303.72c-37.88-16.67-79.92-27.36-125.5-27.36-95.08,0-174.76,46.49-233.4,96.86-58.85,50.56-99.68,107.72-117.81,135.46-13.69,20.96-13.69,47.72,0,68.68,15.3,23.41,46.77,67.78,91.6,111.46l47.14-47.14c-39.03-37.89-67.16-76.88-81.54-98.65,17.01-25.75,53.28-75.61,104.05-119.24,52.42-45.04,117.14-80.76,189.95-80.76,25.73,0,50.45,4.46,73.98,12.22l51.53-51.53Zm-125.5,439.31c-25.73,0-50.45-4.46-73.97-12.22l-51.53,51.53c37.88,16.67,79.92,27.36,125.5,27.36,95.08,0,174.76-46.49,233.4-96.86,58.85-50.56,99.68-107.72,117.81-135.46,13.69-20.96,13.69-47.72,0-68.68-15.3-23.41-46.77-67.78-91.6-111.46l-47.14,47.14c39.03,37.89,67.16,76.88,81.54,98.65-17.01,25.75-53.28,75.61-104.05,119.24-52.42,45.04-117.14,80.76-189.95,80.76Z"/>
</svg>