<?xml version="1.0" encoding="UTF-8"?>
<svg xmlns="http://www.w3.org/2000/svg" viewBox="0 0 800 800">
  <defs><style>.cls-1 { fill-rule: evenodd; }</style></defs>
  <path class="cls-1" d="m66.67,216.67c0-82.84,67.16-150,150-150h183.33c73.64,0,133.33,59.7,133.33,133.33v33.33c0,18.41-14.92,33.33-33.33,33.33s-33.33-14.92-33.33-33.33v-33.33c0-36.82-29.85-66.67-66.67-66.67h-183.33c-46.02,0-83.33,37.31-83.33,83.33v366.67c0,46.02,37.31,83.33,83.33,83.33h183.33c36.82,0,66.67-29.85,66.67-66.67v-33.33c0-18.41,14.92-33.33,33.33-33.33s33.33,14.92,33.33,33.33v33.33c0,73.64-59.7,133.33-133.33,133.33h-183.33c-82.84,0-150-67.16-150-150V216.67Zm543.1,59.76c13.02-13.02,34.12-13.02,47.14,0l100,100c13.02,13.02,13.02,34.12,0,47.14l-100,100c-13.02,13.02-34.12,13.02-47.14,0-13.02-13.02-13.02-34.12,0-47.14l43.1-43.1h-286.19c-18.41,0-33.33-14.92-33.33-33.33s14.92-33.33,33.33-33.33h286.19l-43.1-43.1c-13.02-13.02-13.02-34.12,0-47.14Z"/>
</svg>